<svg width="574" height="574" viewBox="0 0 574 574" fill="none" xmlns="http://www.w3.org/2000/svg">
<path d="M286.633 555.31C435.387 555.31 555.976 435.09 555.976 286.792C555.976 138.494 435.387 18.2754 286.633 18.2754C137.879 18.2754 17.2893 138.494 17.2893 286.792C17.2893 435.09 137.879 555.31 286.633 555.31Z" stroke="#53B7A6" stroke-width="30.8308" stroke-miterlimit="10" stroke-linecap="round" stroke-linejoin="round"/>
<path d="M141.167 369.116L98.3984 305.031L102.081 302.01C114.56 291.784 148.815 275.853 179.206 266.146C204.113 258.19 244.912 248.57 275.422 243.448L302.939 238.838L353.757 198.465C381.708 176.261 408.478 155.602 413.253 152.556C438.875 136.218 462.32 136.281 470.878 152.712C475.928 162.413 476.198 172.902 471.631 181.733C464.516 195.506 447.326 206.846 373.589 246.437L329.189 270.28L326.541 279.38C315.763 316.495 276.802 364.331 223.775 405.542C210.337 415.994 185.674 433.35 184.426 433.238C184.156 433.213 164.694 404.354 141.167 369.109V369.116ZM353.256 223.114C353.256 219.83 352.314 218.867 348.675 218.454C345.695 218.11 343.757 218.83 343.111 220.518C341.323 225.147 343.776 228.337 348.682 227.774C352.315 227.361 353.256 226.398 353.256 223.114ZM398.314 195.787C399.663 192.272 395.711 188.107 391.576 188.695C389.192 189.039 387.95 190.603 387.586 193.742C387.115 197.839 387.586 198.289 392.203 198.289C395.265 198.289 397.743 197.276 398.314 195.787ZM442.062 164.464C442.062 159.498 439.804 157.947 434.496 159.273C432.062 159.886 430.443 161.493 430.443 163.295C430.443 167.423 431.879 168.505 437.356 168.505C441.24 168.505 442.062 167.798 442.062 164.464Z" fill="#53B7A6"/>
</svg>
