<svg width="884.565" height="886.457" viewBox="0 0 234.041 234.542" version="1.1" id="svg1" xml:space="preserve"
     xmlns="http://www.w3.org/2000/svg">
    <g id="layer1" transform="translate(72.199 -746.455)">
        <g id="g95" transform="translate(-2279.608 -551.062) scale(1.65487)" style="fill:#53B7A6;fill-opacity:1">
            <circle style="display:inline;opacity:1;fill:#000;fill-opacity:0;stroke:#53B7A6;stroke-width:4.92929;stroke-linecap:round;stroke-linejoin:round;stroke-miterlimit:10;stroke-dasharray:none;stroke-opacity:1" 
                    id="circle94" cx="1409.613" cy="849.738" r="42.931"/>
            <path d="m1386.427 862.9-6.817-10.246.587-.483c1.989-1.635 7.449-4.182 12.293-5.734 3.97-1.272 10.473-2.81 15.336-3.629l4.386-.737 8.1-6.455c4.455-3.55 8.722-6.853 9.483-7.34 4.084-2.612 7.821-2.602 9.185.025.805 1.551.848 3.228.12 4.64-1.134 2.202-3.874 4.015-15.627 10.345l-7.077 3.812-.422 1.455c-1.718 5.934-7.928 13.582-16.38 20.171-2.142 1.671-6.073 4.446-6.272 4.428-.043-.004-3.145-4.618-6.895-10.253zm33.805-23.343c0-.525-.15-.679-.73-.745-.475-.055-.784.06-.887.33-.285.74.106 1.25.888 1.16.579-.066.729-.22.729-.745zm7.182-4.369c.215-.562-.415-1.228-1.074-1.134-.38.055-.578.305-.636.807-.075.655 0 .727.736.727.488 0 .882-.162.973-.4zm6.973-5.008c0-.794-.36-1.042-1.206-.83-.388.098-.646.355-.646.643 0 .66.229.833 1.102.833.619 0 .75-.113.75-.646z"
                  style="fill:#53B7A6;fill-opacity:1" id="path95"/>
        </g>
    </g>
    <style type="text/css" id="style1">.st0{fill:#000}</style>
</svg>
